<svg width="170" height="56" viewBox="0 0 170 56" fill="none" xmlns="http://www.w3.org/2000/svg">
<path d="M27.2002 18.0064C25.6209 16.9925 25.2826 14.4134 25.2826 14.4134C23.0729 13.6853 20.9209 12.7925 18.8446 11.7425C17.4081 10.7796 17.0698 10.2045 14.8989 9.57848C19.545 5.68093 17.8637 -0.725958 17.3996 1.50437C17.0358 3.26346 13.7157 7.34644 12.2809 9.06981C12.1874 9.06981 11.9681 9.12935 11.8746 9.12935C15.3137 4.98852 13.8517 -1.22612 13.4811 0.211428C12.8895 2.51151 7.09415 11.4805 7.09415 11.4805C7.09415 11.4805 3.69752 14.5325 3.33542 15.4291C3.33542 15.4291 4.13783 15.2351 4.56963 15.2691C4.56963 15.2691 1.42631 20.9751 1.36851 23.5117C1.36851 23.5117 1.88361 22.9537 2.18791 22.7512C2.17091 23.5202 3.03282 28.7872 3.37112 30.8168C3.76042 33.1577 3.75192 35.6432 1.37701 36.4547C0.934096 36.6053 0.467479 36.6739 0 36.6572C3.73322 41.6452 11.5652 55.5342 11.5652 55.5342C14.9108 53.1677 17.0222 49.9048 17.5883 48.3141C17.6733 48.3226 18.661 48.7615 18.661 48.7615C20.6721 44.8214 19.8442 39.8674 19.2016 38.6085C20.2063 39.2005 20.5701 39.1155 20.5701 39.1155C20.4596 38.0845 18.6865 33.8059 18.6865 33.8059C19.8527 33.9573 20.174 33.5694 20.174 33.5694C17.9946 32.0978 16.7689 28.0489 16.7689 28.0489C17.2755 28.3449 17.5288 28.447 18.5097 28.988C16.8539 25.6739 14.2682 22.479 14.2682 22.479C15.6707 22.9009 17.7226 21.414 18.6355 20.9666C19.3411 20.6359 20.0729 20.3645 20.8234 20.1551C21.7023 20.1806 22.792 20.9496 23.603 20.89C24.5992 20.822 26.6783 18.5985 26.9571 18.6155C27.2614 18.6325 27.4637 18.1766 27.2019 18.0064H27.2002ZM15.2219 13.5849H15.1879C15.0451 13.6189 14.9006 13.6785 14.7663 13.7448C14.6728 13.7874 14.5895 13.8299 14.5045 13.8639C14.1339 14.0309 13.7246 14.0927 13.3213 14.0425C12.3744 13.9235 11.64 13.1545 11.1759 12.2001C11.4992 12.2822 11.8302 12.3301 12.1636 12.343C12.966 12.394 14.0047 12.3855 14.6728 12.2749C14.7323 12.2664 14.8003 12.2664 14.8581 12.2664C15.737 12.309 16.0328 13.755 16.0328 13.755C16.0328 13.755 15.7625 13.476 15.2219 13.5866V13.5849ZM164.83 24.1786L160.926 23.2565V25.8781H164.83V24.1786ZM130.979 35.354C130.979 34.83 130.962 34.255 130.937 33.5949C130.911 32.9797 130.826 32.3684 130.683 31.7695C130.538 31.1664 130.305 30.5881 129.991 30.0529C129.65 29.4848 129.196 28.9927 128.657 28.6069C128.091 28.1935 127.365 27.872 126.503 27.6355C125.641 27.399 124.594 27.2799 123.36 27.2799C122.566 27.2714 121.763 27.3395 120.978 27.4654C120.344 27.5589 119.72 27.6933 119.103 27.8634C118.514 28.0047 117.937 28.1942 117.379 28.43L117.251 28.481L116.526 32.5555L119.626 33.1475L120.048 30.8066C121.165 30.5168 122.316 30.375 123.47 30.3847C124.179 30.3847 124.771 30.4612 125.245 30.6042C125.719 30.7471 126.081 30.9342 126.352 31.1707C126.612 31.3877 126.817 31.6627 126.952 31.9737C127.093 32.2935 127.19 32.632 127.239 32.9791C127.299 33.3346 127.324 33.697 127.316 34.0611C127.307 34.4422 127.307 34.8045 127.307 35.1516V35.2026L122.323 35.1601C121.418 35.1601 120.515 35.2622 119.628 35.4646C118.83 35.6482 118.073 35.9807 117.398 36.4445C116.754 36.8928 116.231 37.4944 115.878 38.1951C115.514 38.9045 115.329 39.7585 115.346 40.7402C115.351 41.5213 115.526 42.2919 115.861 42.9977C116.211 43.6974 116.707 44.314 117.314 44.8061C117.993 45.3415 118.767 45.7433 119.596 45.9902C120.572 46.2759 121.586 46.4153 122.603 46.4036C123.829 46.4036 124.951 46.2182 125.94 45.8456C126.447 45.6276 126.919 45.337 127.343 44.9831L127.36 45.8116H131.035L130.984 35.354H130.979ZM127.338 41.897C127.125 42.0448 126.908 42.1855 126.687 42.3189C126.366 42.513 126.026 42.6743 125.673 42.8004C125.244 42.9546 124.803 43.0763 124.356 43.1644C123.409 43.3499 122.287 43.3754 121.323 43.1389C120.911 43.051 120.518 42.8877 120.165 42.6575C119.853 42.4461 119.591 42.1691 119.397 41.846C119.2 41.5016 119.104 41.1092 119.118 40.7129C119.118 40.1634 119.212 39.7245 119.388 39.403C119.542 39.0988 119.787 38.8506 120.089 38.6936C120.416 38.5148 120.774 38.4 121.144 38.355C121.575 38.2955 122.006 38.27 122.445 38.27L127.336 38.3125V41.897H127.338ZM146.65 37.0195L151.762 30.9155H154.946V27.8805H146.303V30.9155H147.816L144.581 34.8556L140.863 30.9155H142.721V27.8805H132.99V30.9155H136.166L141.691 36.7661L136.657 42.7766H132.99V45.8116H142.106V42.7766H140.627L143.795 39.0151L147.384 42.7766H145.915V45.8116H155.68V42.7766H152.124L146.65 37.0195ZM164.813 27.8805H157.759V30.9155H161.12V42.7766H157.759V45.8116H168.184V42.7766H164.813V27.8805ZM113.248 32.4296C112.86 31.3654 112.238 30.402 111.428 29.6105C110.618 28.819 109.64 28.2197 108.568 27.8566C107.408 27.4669 106.192 27.2726 104.969 27.2816C104.428 27.2816 103.888 27.3327 103.356 27.433C102.849 27.5351 102.359 27.6695 101.868 27.8396C101.413 27.9998 100.97 28.1919 100.542 28.4146C100.201 28.5901 99.8684 28.782 99.5458 28.9897L93.9783 27.0792L93.0314 30.0972L96.8921 31.3816V51.2062H93.487V54.2412H103.979V51.2062H100.574V45.8218C101.135 45.984 101.705 46.1141 102.281 46.2114C103.109 46.3543 103.954 46.4223 104.799 46.4138C106.142 46.4138 107.385 46.1603 108.491 45.6704C109.591 45.1877 110.573 44.4727 111.371 43.5744C112.195 42.6428 112.827 41.5569 113.229 40.3795C113.668 39.1529 113.889 37.7749 113.889 36.2965C113.889 34.8181 113.678 33.549 113.246 32.433L113.248 32.4296ZM110.147 36.3016C110.154 37.268 110.037 38.2314 109.8 39.1682C109.598 39.9629 109.252 40.7136 108.779 41.3832C108.341 41.9854 107.764 42.4728 107.097 42.8038C106.429 43.1423 105.644 43.3107 104.767 43.3107H104.707C103.63 43.3207 102.56 43.1493 101.54 42.8038C101.205 42.7009 100.883 42.5623 100.578 42.3904V31.7814C100.915 31.5279 101.277 31.3096 101.659 31.1298C102.109 30.9246 102.575 30.7579 103.053 30.6314C103.664 30.4796 104.29 30.4031 104.92 30.4034H104.928C108.434 30.4034 110.149 32.3309 110.149 36.3033L110.147 36.3016ZM169.12 28.6681C169.12 28.3296 168.85 28.1527 168.486 28.1527H167.743L167.752 29.7927H168.065V29.2261H168.412L168.801 29.7927H169.182L168.743 29.1666C168.854 29.1406 168.953 29.0767 169.023 28.9858C169.092 28.8948 169.128 28.7825 169.124 28.6681H169.12ZM168.452 28.9727H168.055V28.4317H168.452C168.663 28.4317 168.782 28.5252 168.782 28.7022C168.782 28.8621 168.663 28.9727 168.452 28.9727Z" fill="white"/>
<path d="M168.378 27.3809C167.949 27.3827 167.538 27.5545 167.236 27.8588C166.934 28.163 166.764 28.5748 166.764 29.0039V29.0124C166.765 29.2251 166.807 29.4356 166.889 29.6319C166.97 29.8283 167.09 30.0065 167.24 30.1565C167.391 30.3065 167.57 30.4253 167.767 30.506C167.963 30.5867 168.174 30.6278 168.386 30.6269C168.815 30.6251 169.226 30.4532 169.528 30.149C169.83 29.8448 170 29.433 170 29.0039V28.9954C169.998 28.5663 169.826 28.1554 169.522 27.8528C169.218 27.5501 168.807 27.3805 168.378 27.3809ZM169.806 29.0039C169.785 29.3693 169.626 29.7131 169.36 29.9648C169.095 30.2166 168.743 30.3574 168.378 30.3585C168.012 30.3596 167.659 30.2209 167.392 29.9707C167.125 29.7205 166.964 29.3777 166.941 29.0124V29.0039C166.962 28.6385 167.121 28.2947 167.387 28.0429C167.652 27.7912 168.004 27.6503 168.369 27.6493C168.735 27.6482 169.088 27.7869 169.355 28.0371C169.622 28.2873 169.783 28.6301 169.806 28.9954V29.0039ZM59.6637 29.8579C58.8361 29.0188 57.8361 28.3698 56.7329 27.9559C55.6007 27.517 54.3342 27.2958 52.9572 27.2958C51.6986 27.2808 50.4485 27.5048 49.2733 27.9559C48.1846 28.3787 47.1974 29.0268 46.3764 29.8579C45.574 30.6694 44.9484 31.6919 44.5013 32.8759C44.0542 34.06 43.8417 35.4125 43.8417 36.8824C43.8417 38.3522 44.061 39.6979 44.5013 40.8803C44.9416 42.0626 45.574 43.0783 46.3764 43.8898C47.1978 44.7183 48.185 45.3636 49.2733 45.7833C50.4492 46.231 51.6991 46.4521 52.9572 46.4348C54.3342 46.4348 55.6007 46.2154 56.7329 45.7833C57.8379 45.375 58.8375 44.7285 59.6637 43.8898C60.4981 43.0303 61.1427 42.005 61.5558 40.8803C61.9944 39.7047 62.2239 38.3607 62.2239 36.8824C62.2239 35.404 61.9961 34.0413 61.5558 32.8674C61.1391 31.7445 60.4949 30.7199 59.6637 29.8579ZM57.078 41.6594C56.1906 42.7499 54.8051 43.308 52.9895 43.308C51.1739 43.308 49.8547 42.7584 48.969 41.6594C48.0731 40.5349 47.6174 38.9289 47.6174 36.8824C47.6174 34.8358 48.0731 33.2043 48.969 32.0797C49.8649 30.9552 51.2164 30.4057 52.9895 30.4057C54.7626 30.4057 56.1736 30.9637 57.0695 32.0882C57.9824 33.2128 58.4465 34.8273 58.4465 36.8824C58.4465 38.9375 57.9824 40.5519 57.078 41.6594ZM40.8854 41.5999C40.39 41.9313 39.864 42.2145 39.3146 42.4454C38.7657 42.6914 38.1978 42.8923 37.6163 43.046C36.9484 43.2188 36.261 43.304 35.5712 43.2994C33.7879 43.2994 32.4364 42.7414 31.5506 41.6339C30.6462 40.5009 30.1906 38.8864 30.1906 36.8313C30.1906 34.7762 30.6462 33.1617 31.5506 32.0457C32.4381 30.9552 33.7896 30.3972 35.5712 30.3972C36.4926 30.3972 37.21 30.4568 37.7166 30.5826C38.1722 30.7102 38.434 30.7851 38.587 30.8361L39.1276 33.7776L42.2369 33.092L41.3155 28.3319L41.1965 28.2724C40.7403 28.0709 40.2684 27.9071 39.7855 27.7824C39.2094 27.6361 38.6253 27.523 38.0362 27.4439C37.2083 27.3248 36.3804 27.2754 35.544 27.2839C34.2894 27.2752 33.0438 27.496 31.8685 27.9355C30.7787 28.352 29.7908 28.9977 28.9717 29.829C28.1425 30.6893 27.5035 31.7147 27.0966 32.8385C26.658 34.0055 26.437 35.358 26.437 36.8279C26.437 38.2978 26.6563 39.652 27.0966 40.8258C27.5019 41.9555 28.1408 42.9868 28.9717 43.8523C29.7905 44.6862 30.7782 45.3347 31.8685 45.7543C33.0405 46.2075 34.2876 46.4344 35.544 46.4229C36.4654 46.4314 37.3766 46.2953 38.264 46.0419C39.0253 45.8283 39.7683 45.5541 40.4859 45.2219C41.0098 44.9874 41.515 44.7133 41.9972 44.4018C42.6313 43.9799 42.6568 43.9544 42.6568 43.8013V43.7248L41.0945 41.4502L40.8837 41.5931L40.8854 41.5999ZM74.1682 43.1821C74.1427 43.1821 74.0917 43.1821 73.5171 43.2841C73.087 43.3437 72.6467 43.3777 72.2081 43.3777C71.4652 43.3267 70.8991 43.1157 70.5183 42.7431C70.1293 42.3554 69.8445 41.8755 69.6904 41.3481C69.5131 40.7521 69.4137 40.1357 69.3946 39.5142C69.3776 38.8541 69.3691 38.2553 69.3691 37.7143V30.9093H74.4385V27.8743H69.3691V23.5548L65.7362 24.4088V27.8828H62.3735V30.9178H65.7362V39.4989C65.7362 40.6404 65.879 41.6458 66.1663 42.4999C66.4228 43.3051 66.8489 44.0459 67.4158 44.6723C67.9716 45.262 68.6573 45.7134 69.4184 45.9908C70.2565 46.2854 71.1397 46.431 72.0279 46.4212C72.4087 46.4212 72.7708 46.3957 73.1431 46.3617C73.4474 46.3277 73.7517 46.2681 74.0475 46.1933C74.3292 46.1324 74.606 46.0505 74.8754 45.9483L75.0947 45.8632L74.3688 43.1838H74.1665L74.1682 43.1821ZM92.7969 32.8674C92.3818 31.7432 91.7407 30.716 90.9133 29.8494C90.0791 29.0123 89.0774 28.3613 87.974 27.9389C86.8333 27.5085 85.5668 27.2873 84.1983 27.2873C82.8298 27.2873 81.6296 27.5068 80.5229 27.9474C79.4342 28.3702 78.447 29.0183 77.626 29.8494C76.7895 30.7121 76.1472 31.7441 75.7424 32.8759C75.3038 34.06 75.0913 35.4125 75.0913 36.8824C75.0913 38.3522 75.3106 39.6979 75.7424 40.8803C76.1495 42.006 76.7916 43.0319 77.626 43.8898C78.4474 44.7183 79.4346 45.3636 80.5229 45.7833C81.6983 46.2221 82.9438 46.4429 84.1983 46.4348C85.4856 46.4438 86.7641 46.2232 87.974 45.7833C89.0782 45.3705 90.0807 44.7247 90.9133 43.8898C91.7423 43.0277 92.3837 42.0029 92.7969 40.8803C93.244 39.6962 93.4735 38.3522 93.4735 36.8824C93.4735 35.4125 93.2542 34.0498 92.7969 32.8674ZM88.3276 41.6509C87.4232 42.7499 86.0887 43.2994 84.2391 43.2994C82.432 43.2994 81.1128 42.7584 80.2186 41.6509C79.3142 40.5349 78.8586 38.9204 78.8586 36.8738C78.8586 34.8273 79.3142 33.1958 80.2186 32.0712C81.123 30.9467 82.4405 30.3972 84.2391 30.3972C86.0377 30.3972 87.4147 30.9637 88.3191 32.0712C89.2405 33.2043 89.6961 34.8187 89.6961 36.8738C89.6961 38.9289 89.232 40.5519 88.3276 41.6509Z" fill="white"/>
</svg>
