<?xml version="1.0" encoding="utf-8"?>
<!-- Generator: Adobe Illustrator 19.0.0, SVG Export Plug-In . SVG Version: 6.00 Build 0)  -->
<svg version="1.1" id="Layer_1" xmlns="http://www.w3.org/2000/svg" xmlns:xlink="http://www.w3.org/1999/xlink" x="0px" y="0px"
	 width="92px" height="33px" viewBox="-259 380 92 33" style="enable-background:new -259 380 92 33;" xml:space="preserve">
<style type="text/css">
	.st0{fill:#FFFFFE;}
</style>
<path class="st0" d="M-232.1,400.5l-11.8,4.6c-0.2,0.1-0.4,0.2-0.6,0.2c-3.2,0.6-5.1,2.4-5.6,5.8c-0.2,1.1-0.8,1.3-1.8,1.3
	c-2.3-0.1-4.6,0-7.2,0c0.2-0.6,0.3-1.1,0.5-1.6c3.5-9.8,6.9-19.6,10.4-29.4c0.3-1,0.7-1.4,1.8-1.3c2,0.1,3.9,0,5.9,0.1
	c0.5,0,1.2,0.4,1.4,0.9c2.4,6.4,4.8,12.7,7.1,19.1C-232,400.2-232,400.4-232.1,400.5z M-240.2,400c-1.1-3-2.1-5.7-3.2-9
	c-1.1,3.3-2,6-3,9H-240.2z"/>
<path class="st0" d="M-184.3,385.3v19.1h9.2v-8h7.8v15.8h-25.1c-0.1-0.3-0.1-0.6-0.1-0.9c0-6.9,0-13.8,0-20.8c0-0.5,0.2-1.1,0.6-1.3
	C-189.5,387.9-187,386.7-184.3,385.3z"/>
<path class="st0" d="M-204.6,389.9c-1-1.7-2.5-1.9-4.2-1.9c-2.2,0.1-4.3,0-6.8,0c0,1.7-0.1,3.3,0,4.8c0,1-0.3,1.4-1.2,1.8
	c-2.2,0.8-4.4,1.7-6.8,2.6V380h5.4c3.6,0,7.2,0,10.8,0c4.5,0.1,8.3,2.7,10.1,7.1c-1.2,0.5-2.4,1-3.6,1.4
	C-202.2,389-203.4,389.5-204.6,389.9z"/>
<path class="st0" d="M-196.7,392c0.1,5.3-4.5,10.3-9.8,10.6c-2.5,0.2-5,0.1-7.5,0.1c-0.5,0-1,0-1.7,0.1v9.5h-8.2c0-2,0-3.8,0-5.7
	c0-0.2,0.1-0.4,0.3-0.6c0.1-0.2,0.3-0.3,0.5-0.4c8.6-4.5,17.3-9,25.9-13.5C-197,391.9-196.9,392-196.7,392z"/>
<path class="st0" d="M-184.4,380.2c0.4,1.3,0.2,2.1-1.3,2.5c-2.2,0.7-4.3,1.6-6.6,2.5v-5H-184.4z"/>
<path class="st0" d="M-235.5,412l6.6-3.4l1.4,3.7h-8L-235.5,412z"/>
</svg>
