<?xml version="1.0" encoding="utf-8"?>
<svg width="517" height="256" viewBox="0 0 517 256" fill="none" xmlns="http://www.w3.org/2000/svg">
<path d="M115.699 19.5873C92.4522 20.0869 69.8702 27.4267 50.7843 40.6873C31.6977 53.9478 16.956 72.5393 8.4068 94.1302C-0.14236 115.721 -2.11847 139.351 2.72585 162.059C7.57023 184.767 19.0192 205.541 35.6386 221.779C52.2579 238.017 73.3079 248.996 96.1493 253.339C118.991 257.681 142.608 255.194 164.041 246.191C185.473 237.187 203.768 222.066 216.63 202.725C229.492 183.383 236.35 160.682 236.346 137.464C235.982 105.864 223.072 75.6999 200.451 53.5974C177.83 31.4955 147.347 19.2631 115.699 19.5873ZM115.699 188.738C105.419 189.16 95.2476 186.501 86.4929 181.104C77.7386 175.707 70.8016 167.818 66.574 158.452C62.3459 149.086 61.0206 138.672 62.769 128.548C64.517 118.424 69.2587 109.054 76.3836 101.642C83.5086 94.2311 92.6909 89.1182 102.75 86.9599C112.809 84.8021 123.285 85.6972 132.83 89.5319C142.375 93.3671 150.552 99.9661 156.311 108.479C162.07 116.993 165.145 127.032 165.143 137.306C165.298 143.937 164.14 150.533 161.738 156.718C159.335 162.902 155.735 168.552 151.142 173.345C146.549 178.137 141.054 181.977 134.972 184.646C128.89 187.314 122.341 188.76 115.699 188.897V188.738Z" fill="#727C81"/>
<path d="M305.379 24.1851V108.761C316.443 94.1185 331.847 87.3005 353.393 87.3005C393.097 87.3005 419.832 108.444 419.832 162.096V250.742H351.753V162.836C351.753 149.039 345.347 138.786 331.371 138.786C316.496 138.786 304.902 152.423 304.902 175.364V250.742H236.083V24.1851H305.379Z" fill="#727C81"/>
<path d="M516.602 38.4055C516.602 30.8132 514.348 23.3905 510.122 17.0784C505.895 10.7664 499.894 5.84774 492.864 2.9447C485.84 0.0416684 478.109 -0.714857 470.653 0.770178C463.195 2.25522 456.347 5.91559 450.974 11.2879C445.601 16.6602 441.946 23.5025 440.469 30.9502C438.992 38.3979 439.76 46.1164 442.677 53.1277C445.595 60.1393 450.529 66.1289 456.856 70.3393C463.184 74.5496 470.619 76.7919 478.223 76.7816C488.407 76.7677 498.168 72.7175 505.366 65.522C512.559 58.3265 516.602 48.5743 516.602 38.4055Z" fill="#727C81"/>
<path d="M512.529 95.5981H443.813V250.741H512.529V95.5981Z" fill="#727C81"/>
</svg>
