<?xml version="1.0" encoding="utf-8"?>
<svg width="601" height="121" viewBox="0 0 601 121" fill="none" xmlns="http://www.w3.org/2000/svg">
<path fill-rule="evenodd" clip-rule="evenodd" d="M120 60.1998C120 93.2998 93.2 120.1 60.1 120.1C27 120.1 0.200012 93.2998 0.200012 60.1998C0.200012 27.0998 27 0.299805 60.1 0.299805C93.2 0.299805 120 27.0998 120 60.1998ZM36.2 83.8998H65.9C66.4 83.8998 66.6 83.2998 66.4 82.8998L42.4 53.1998C42 52.7998 41.5 52.9998 41.4 53.3998L35.6 83.0998C35.5 83.5998 35.8 83.8998 36.2 83.8998ZM35.6 39.0998H65.3C65.7 39.0998 66 39.4998 65.9 39.7998L60.1 69.4998C60 69.9998 59.4 70.0998 59.1 69.6998L35.1 39.8998C34.9 39.5998 35.1 39.0998 35.6 39.0998ZM68.3 39.4998C68.4 39.2998 68.6 38.9998 68.9 38.9998H90.3C90.7 38.9998 91 39.3998 90.9 39.6998L86.9 58.9998C86.8 59.2998 86.6 59.4998 86.3 59.4998H85.7C75.2 59.4998 66.8 49.7998 68.3 39.4998ZM164.2 34.8998H185.6C186.6 34.8998 187.3 35.4998 187 36.5998L185.8 43.4998C190 37.3998 196.1 33.6998 202.4 33.6998C205.5 33.6998 208.8 34.8998 210.6 36.5998C211.6 37.5998 211.6 38.1998 210.9 39.1998L204.7 47.9998C203.9 49.0998 203.4 48.9998 202.1 48.3998C200.9 47.8998 199.3 47.3998 197.7 47.3998C190.3 47.3998 184 52.2998 181.1 67.0998L176.8 89.3998C176.5 90.8998 175.4 91.1998 174.8 91.1998H163.5C162.6 91.1998 161.8 90.3998 162.1 89.3998L170.5 46.4998L163.4 36.4998C162.8 35.6998 163.2 34.8998 164.2 34.8998ZM205.1 62.5998C208 45.1998 220.8 33.6998 237.4 33.6998C254.3 33.6998 262.3 47.1998 259.9 61.7998C259.3 65.5998 258 68.5998 254.9 68.5998H218.9C219.2 76.7998 224.9 80.6998 232.5 80.6998C237.5 80.6998 242.2 78.7998 245.7 76.4998C246.6 75.7998 247.6 75.4998 248.2 76.4998L252.3 82.8998C253 83.8998 252.6 84.5998 251.6 85.4998C246.3 90.3998 237.6 92.5998 229.7 92.5998C212 92.5998 202.4 79.4998 205.1 62.5998ZM247 58.7998C247.5 49.9998 241.5 46.2998 235.8 46.2998C228.2 46.2998 222.4 51.3998 220.1 58.7998H247ZM313.7 89.7998L326.6 23.9998L320.3 15.5998C320 14.9998 320.4 14.2998 321.2 14.2998H341C342.1 14.2998 342.7 14.9998 342.4 15.9998L336.6 44.9998C341 38.2998 347.7 33.7998 355.5 33.7998C368 33.7998 375.1 44.4998 372.4 57.5998L366 89.4998C365.8 90.6998 364.8 91.2998 364 91.2998H352.3C351.2 91.2998 350.6 90.5998 350.8 89.4998L356.6 60.6998C358.1 52.8998 356 48.0998 351.3 48.0998C342.4 48.0998 335.4 58.0998 332.4 72.1998L328.6 89.8998C328.5 90.5998 327.9 91.1998 327.1 91.1998H314.8C314.1 91.0998 313.6 90.4998 313.7 89.7998ZM376.4 63.1998C379.3 44.5998 392.4 33.5998 407.7 33.5998C415.8 33.5998 422.1 37.2998 424.6 43.3998L425.9 36.5998C426.1 35.3998 427 34.7998 428 34.7998H438.8C440 34.7998 440.5 35.5998 440.2 36.5998L429.9 89.3998C429.7 90.3998 429 91.0998 427.8 91.0998H416.9C415.9 91.0998 415.4 90.4998 415.6 89.3998L416.6 83.8998C411.5 89.6998 405.2 92.5998 398.3 92.5998C382.6 92.6998 373.8 79.6998 376.4 63.1998ZM402.7 79.1998C411.7 79.1998 418.4 71.5998 419.7 62.7998C421 53.8998 416.2 47.1998 407.9 47.1998C399 47.1998 392.6 54.3998 391.1 62.8998C389.7 71.4998 394 79.1998 402.7 79.1998ZM436.9 89.2998L447.4 36.2998C447.6 35.3998 448.1 34.8998 448.7 34.8998H460.5C461.5 34.8998 462.2 35.4998 461.9 36.5998L460.7 43.4998C464.9 37.3998 471 33.6998 477.2 33.6998C480.3 33.6998 483.7 34.8998 485.4 36.5998C486.4 37.5998 486.4 38.1998 485.7 39.1998L479.5 47.9998C478.7 49.0998 478.1 48.9998 476.9 48.3998C475.7 47.8998 474.1 47.3998 472.4 47.3998C465 47.3998 458.7 52.2998 455.9 67.0998L451.6 89.3998C451.3 90.8998 450.1 91.1998 449.6 91.1998H438.3C437.5 91.0998 436.7 90.2998 436.9 89.2998ZM475.7 107.2C475 106.7 475 105.8 475.5 105L480.7 96.7998C481.3 95.8998 482.1 95.6998 482.8 96.1998C487.9 99.3998 492.9 101.4 499 101.4C509.7 101.4 518.6 97.0998 521.7 82.6998C515.8 88.1998 510.4 90.8998 502.1 90.8998C486 90.8998 477.6 77.3998 480.2 62.1998C483.2 45.0998 496 33.4998 512.1 33.4998C521 33.4998 527.1 38.4998 529 42.5998L530.3 36.4998C530.5 35.2998 531.3 34.6998 532.2 34.6998H543.1C544.2 34.6998 544.8 35.3998 544.6 36.4998L535.5 82.9998C531.5 103.2 517.5 113.8 498.5 113.8C490.5 113.9 481.5 111.9 475.7 107.2ZM506.4 77.9998C515.4 77.9998 522.1 70.7998 523.4 62.1998C524.7 53.5998 520 47.1998 511.6 47.1998C502.7 47.1998 496.3 54.1998 494.8 62.2998C493.4 70.5998 497.7 77.9998 506.4 77.9998ZM545 62.5998C547.9 45.1998 560.7 33.6998 577.3 33.6998C594.2 33.6998 602.2 47.1998 599.7 61.7998C599.2 65.5998 597.8 68.5998 594.7 68.5998H558.7C559 76.7998 564.7 80.6998 572.3 80.6998C577.3 80.6998 582 78.7998 585.5 76.4998C586.4 75.7998 587.4 75.4998 588 76.4998L592.1 82.8998C592.8 83.8998 592.4 84.5998 591.4 85.4998C586.1 90.3998 577.4 92.5998 569.5 92.5998C551.9 92.5998 542.3 79.4998 545 62.5998ZM586.9 58.7998C587.4 49.9998 581.4 46.2998 575.7 46.2998C568.1 46.2998 562.3 51.3998 560 58.7998H586.9ZM288.8 92.6998C296.3 92.6998 303.6 90.5998 310.3 84.2998C311.3 83.3998 311.4 82.1998 310.7 81.4998L304.6 74.6998C304 73.9998 303.1 73.9998 302.4 74.5998C299.8 76.4998 295.7 78.6998 290.8 78.6998C282 78.6998 277.1 71.7998 278.2 63.1998C279.3 54.5998 286.1 47.6998 294.7 47.6998C299.4 47.6998 302.4 49.3998 305.7 52.6998C306.6 53.5998 307.1 53.5998 308.1 52.7998L316 45.9998C316.8 45.2998 317 44.5998 316.4 43.6998C311.6 36.8998 304.2 33.6998 296 33.6998C279.4 33.6998 266 45.9998 263.8 62.3998C261.4 80.0998 273.2 92.6998 288.8 92.6998Z" fill="#727C81"/>
</svg>
