<?xml version="1.0" encoding="utf-8"?>
<!-- Generator: Adobe Illustrator 19.0.0, SVG Export Plug-In . SVG Version: 6.00 Build 0)  -->
<svg version="1.1" id="Layer_1" xmlns="http://www.w3.org/2000/svg" xmlns:xlink="http://www.w3.org/1999/xlink" x="0px" y="0px"
	 width="130px" height="38px" viewBox="-240 378 130 38" style="enable-background:new -240 378 130 38;" xml:space="preserve">
<style type="text/css">
	.st0{fill:#727C81;}
</style>
<path class="st0" d="M-219,382.6l1.4-0.3v32.3l-22.3-3.8c0.3-2.5,0.6-5,0.9-7.4c0.6-4.7,1.2-9.3,1.8-14c0.1-0.8,0.4-1.3,1.2-1.5
	c1.1-0.3,2.4-0.4,3.1-1.1c0.7-0.7,0.8-2,1.2-3c0.8-1.8,1.8-3.5,3.4-4.7c1.8-1.3,3.1-1.4,4.9-0.2c0.1,0.1,0.2,0.2,0.3,0.2
	C-220.8,379.1-219.8,380.6-219,382.6z M-222.9,389.7c-2.7-0.7-5.1-0.4-7.3,1.1c-3.5,2.5-3.5,7.2-0.1,9.7c0.5,0.3,0.9,0.7,1.3,1.1
	c0.6,0.6,0.9,1.3,0.4,2.1c-0.4,0.8-1.3,0.9-2,0.6c-0.9-0.3-1.8-0.7-2.8-1.1c-0.1,0.8-0.3,1.6-0.6,2.3c-0.2,0.6,0,1.1,0.5,1.3
	c1.2,0.5,2.5,1.1,3.7,1.3c2.6,0.4,4.6-0.8,5.6-3c1-2.5,0.5-5.1-1.5-6.7c-0.7-0.6-1.6-1.1-2.3-1.6c-0.7-0.5-1.3-1-1-2
	c0.3-1,1.1-1.3,2-1.3c1,0,1.9,0.2,2.9,0.2L-222.9,389.7z M-231.3,386.4c0.8-0.2,1.5-0.5,2.2-0.7c0.6-0.1,0.8-0.5,1.1-1.1
	c0.6-1.4,1.3-2.7,2.1-4c0.3-0.5,0.8-0.8,1.3-1.2C-227.4,378.8-230.2,381.8-231.3,386.4z M-223.6,380.4c-1.9,1.1-2.7,2.7-3.3,4.7
	c1.2-0.4,2.3-0.7,3.2-1c0.1-0.1,0.2-0.2,0.3-0.3s0.1-0.3,0.2-0.4C-223.3,382.4-223.4,381.5-223.6,380.4z M-220.2,383
	c-0.4-1.2-0.9-2.2-2.2-2.6c0.2,1.1,0.3,2.1,0.5,3.2L-220.2,383z"/>
<path class="st0" d="M-207.8,412.2l-9.1,2.2v-31.8c0.2,0.1,0.4,0.3,0.5,0.5c1,1.2,2.2,1.8,3.8,1.6c0.3,0,0.8,0.4,0.9,0.7
	c1.3,8.8,2.6,17.6,3.9,26.4C-207.7,412-207.8,412.1-207.8,412.2z"/>
<path class="st0" d="M-156.6,392.6h3.8c-0.1,0.8-0.2,1.5-0.2,2.4c0.1-0.1,0.2-0.2,0.2-0.3c0.9-1.1,2-1.9,3.4-2.2
	c2-0.5,4.3,0.2,5.2,2.9c0.4,1.2,0.4,2.4,0.3,3.6c-0.2,2.2-0.9,4.2-2.1,6c-1.3,1.8-2.9,3-5.1,3.4c-1.3,0.2-2.6,0.2-3.8-0.4
	c0,0-0.1,0-0.2,0c-0.1,0.5-0.2,1-0.3,1.5c-0.3,1.6-0.6,3.2-0.9,4.8c0,0.2-0.1,0.3-0.3,0.3c-1.3,0-2.6,0-4,0c0,0-0.1,0-0.1,0
	C-159.3,407.2-157.6,400-156.6,392.6z M-148.4,398.6c0-0.5,0-1.1-0.3-1.6c-0.3-0.7-0.8-1-1.5-1c-0.7,0-1.3,0.4-1.8,0.9
	c-0.7,0.7-1.2,1.6-1.4,2.6c-0.4,1.7-0.7,3.4-1,5.1c0,0.1,0.1,0.2,0.2,0.3c0.8,0.6,2,0.6,2.9,0.1c0.6-0.4,1-0.9,1.4-1.5
	C-148.9,401.9-148.5,400.4-148.4,398.6z"/>
<path class="st0" d="M-186.4,385.8h4.4c-0.6,2.9-1.1,5.9-1.7,8.8l0.1,0l0.3-0.3c1.2-1.3,2.7-2,4.5-2c1.9,0.1,3.1,1.2,3.4,3.1
	c0.2,1.2,0,2.4-0.2,3.6c-0.6,3-1.1,6-1.7,9c0,0.2-0.1,0.3-0.3,0.3c-1.3,0-2.7,0-4,0c-0.1,0-0.1,0-0.2,0c0.2-0.9,0.3-1.8,0.5-2.6
	c0.4-2.2,0.8-4.4,1.2-6.5c0.1-0.6,0.1-1.2,0.1-1.8c0-1.1-0.8-1.6-1.9-1.3c-0.7,0.2-1.1,0.7-1.5,1.2c-0.8,1.1-1.2,2.3-1.5,3.6
	c-0.5,2.4-0.9,4.8-1.4,7.3c0,0.2-0.1,0.3-0.3,0.3c-1.3,0-2.7,0-4,0c0,0-0.1,0-0.2,0C-189.2,400.8-187.8,393.3-186.4,385.8z"/>
<path class="st0" d="M-125.4,415.4l-1.2-3.7c0.1-0.1,0.3-0.1,0.4-0.2c1.8-0.7,3.3-1.8,4.3-3.4c0.2-0.4,0.3-0.8,0.2-1.3
	c-0.7-3.9-1.4-7.7-2.2-11.6c-0.2-0.8-0.3-1.6-0.5-2.5h4.6c0.4,3.5,0.7,7.1,1.1,10.7l4-10.7h4.6c-0.2,0.5-0.4,0.9-0.6,1.4
	c-1.8,3.8-3.5,7.5-5.3,11.3c-1.1,2.2-2.3,4.3-3.9,6.2c-1.4,1.7-3,2.9-5,3.6C-125,415.3-125.2,415.3-125.4,415.4z"/>
<path class="st0" d="M-174.3,402.4c0.1-3,1-5.7,3.1-7.8c1.9-1.9,4.3-2.6,6.9-2.2c2.5,0.4,4,1.9,4.5,4.3c0.5,2.3,0.1,4.5-0.8,6.6
	c-0.8,1.9-2.1,3.3-3.9,4.3c-1.9,1-3.8,1.2-5.8,0.6c-2.3-0.7-3.5-2.3-3.9-4.6C-174.2,403.2-174.2,402.8-174.3,402.4z M-164,398.4
	c0-0.2,0-0.6-0.1-0.9c-0.3-1.7-2-2.3-3.3-1.3c-0.4,0.3-0.8,0.8-1.1,1.3c-0.9,1.5-1.3,3.2-1.2,4.9c0,0.6,0.1,1.1,0.3,1.6
	c0.5,1.1,1.8,1.5,2.8,0.9c0.5-0.3,0.9-0.8,1.2-1.3C-164.5,402-164.1,400.3-164,398.4z"/>
<path class="st0" d="M-123.2,385.9c-0.3,1.2-0.6,2.3-0.8,3.4c-0.2,0-0.4-0.1-0.6-0.1c-1.4-0.3-2.4,0.2-3,1.5c-0.3,0.6-0.4,1.3-0.6,2
	h3.1c-0.2,1.1-0.4,2.2-0.6,3.3h-3c-0.8,4.1-1.5,8.2-2.3,12.3h-4.4c0.8-4.1,1.5-8.2,2.3-12.3h-2c0.2-1.1,0.4-2.2,0.6-3.3h2
	c0.1-0.6,0.2-1.1,0.4-1.7c0.3-1.4,0.9-2.6,1.9-3.7c1.1-1.1,2.5-1.7,4-1.8c0.9-0.1,1.7,0,2.6,0.2
	C-123.5,385.7-123.3,385.8-123.2,385.9z"/>
<path class="st0" d="M-202.7,407.5l1.1-3.1c0.5,0.2,0.9,0.4,1.4,0.5c0.7,0.3,1.5,0.4,2.3,0.4c0.2,0,0.5,0,0.7-0.1
	c1.2-0.3,1.5-1.6,0.7-2.5c-0.4-0.4-0.9-0.7-1.3-1c-0.6-0.5-1.3-0.8-1.8-1.4c-1.8-1.8-1.3-4.2-0.2-5.7c0.6-0.8,1.5-1.4,2.5-1.8
	c2-0.7,4-0.7,6-0.1c0.2,0.1,0.4,0.1,0.5,0.2c0.1,0,0.1,0.1,0.2,0.1l-1,3.1c-0.6-0.2-1.1-0.3-1.6-0.4c-0.7-0.1-1.4-0.2-2.1,0
	c-1.2,0.4-1.4,1.6-0.5,2.4c0.3,0.3,0.6,0.4,1,0.7c0.6,0.4,1.2,0.8,1.7,1.2c1.7,1.4,2,3.2,1.2,5.2c-0.6,1.4-1.7,2.3-3.1,2.8
	c-2.3,0.8-4.6,0.7-6.9-0.2c-0.2-0.1-0.3-0.2-0.5-0.3C-202.6,407.6-202.6,407.5-202.7,407.5z"/>
<path class="st0" d="M-139.3,408.3h-4.4c1-5.2,2-10.4,3-15.6h4.4C-137.3,397.9-138.3,403.1-139.3,408.3z"/>
<path class="st0" d="M-135.3,388.2c0,1.7-1.5,2.9-3.2,2.5c-0.8-0.2-1.4-0.9-1.5-1.9c-0.2-1.7,1.4-3.1,3.1-2.7
	C-136,386.3-135.3,387.1-135.3,388.2z"/>
</svg>
