<?xml version="1.0" encoding="utf-8"?>
<!-- Generator: Adobe Illustrator 19.0.0, SVG Export Plug-In . SVG Version: 6.00 Build 0)  -->
<svg version="1.1" id="Layer_1" xmlns="http://www.w3.org/2000/svg" xmlns:xlink="http://www.w3.org/1999/xlink" x="0px" y="0px"
	 width="152px" height="31px" viewBox="-229 381 152 31" style="enable-background:new -229 381 152 31;" xml:space="preserve">
<style type="text/css">
	.st0{clip-path:url(#SVGID_2_);}
	.st1{fill:#727C81;}
</style>
<g>
	<defs>
		<rect id="SVGID_1_" x="-229" y="381" width="151.1" height="31"/>
	</defs>
	<clipPath id="SVGID_2_">
		<use xlink:href="#SVGID_1_"  style="overflow:visible;"/>
	</clipPath>
	<g class="st0">
		<path class="st1" d="M-211.6,384.8l1.2-0.3v26.8l-18.5-3.2c0.3-2.1,0.5-4.1,0.8-6.1c0.5-3.9,1-7.7,1.5-11.6c0.1-0.7,0.3-1,1-1.2
			c0.9-0.2,2-0.3,2.6-0.9c0.6-0.6,0.7-1.6,1-2.5c0.6-1.5,1.5-2.9,2.8-3.9c1.5-1.1,2.5-1.1,4.1-0.2c0.1,0,0.1,0.1,0.2,0.1
			C-213,381.9-212.2,383.2-211.6,384.8z M-214.8,390.7c-2.2-0.5-4.2-0.3-6,0.9c-2.9,2.1-2.9,6-0.1,8.1c0.4,0.3,0.7,0.6,1.1,0.9
			c0.5,0.5,0.7,1.1,0.4,1.7c-0.4,0.7-1,0.7-1.7,0.5c-0.8-0.3-1.5-0.6-2.3-0.9c-0.1,0.7-0.3,1.3-0.5,1.9c-0.2,0.5,0,0.9,0.4,1.1
			c1,0.4,2,0.9,3.1,1c2.1,0.3,3.8-0.7,4.6-2.5c0.9-2,0.4-4.3-1.2-5.6c-0.6-0.5-1.3-0.9-1.9-1.4c-0.6-0.4-1.1-0.9-0.9-1.6
			c0.2-0.8,0.9-1.1,1.6-1.1c0.8,0,1.6,0.1,2.4,0.2L-214.8,390.7z M-221.7,387.9c0.7-0.2,1.3-0.4,1.8-0.5c0.5-0.1,0.7-0.4,0.9-0.9
			c0.5-1.1,1.1-2.2,1.7-3.3c0.2-0.4,0.7-0.6,1.1-1C-218.5,381.6-220.9,384.2-221.7,387.9z M-215.4,383c-1.6,0.9-2.2,2.3-2.7,3.9
			c1-0.3,1.9-0.5,2.7-0.8c0.1-0.1,0.2-0.1,0.3-0.2c0.1-0.1,0.1-0.2,0.1-0.3C-215.1,384.7-215.2,383.9-215.4,383z M-212.6,385.1
			c-0.4-1-0.7-1.8-1.8-2.2c0.1,0.9,0.3,1.7,0.4,2.6L-212.6,385.1z"/>
		<path class="st1" d="M-202.3,409.4l-7.5,1.9v-26.4c0.2,0.1,0.3,0.3,0.5,0.4c0.8,1,1.8,1.5,3.1,1.3c0.2,0,0.7,0.3,0.7,0.6
			c1.1,7.3,2.2,14.6,3.3,21.9C-202.2,409.2-202.2,409.3-202.3,409.4z"/>
		<path class="st1" d="M-115.7,394.6c1.8-1.6,3.8-2.1,6-1.7c2,0.3,3.2,1.6,3.3,3.6c0.2,3.1-0.4,5.9-2.7,8.2c-1.8,1.7-4,2.1-6.3,1.4
			c-0.8-0.2-1.5-0.8-2.2-1.3c-0.3,1.7-0.7,3.5-1,5.3c0,0.2,0,0.5-0.1,0.6c-0.3,0.3-0.6,0.8-0.9,0.7c-0.6-0.1-0.4-0.6-0.4-1
			c0.9-4.9,1.9-9.8,2.9-14.7c0.1-0.6,0.2-1.2,0.4-1.8c0.1-0.5,0.3-0.9,0.9-0.8c0.6,0.1,0.4,0.7,0.4,1.1
			C-115.6,394.2-115.7,394.4-115.7,394.6z M-112.3,393.9c-1,0-2.4,0.8-3.3,2.4c-0.9,1.7-1.4,3.6-1.3,5.5c0,1.6,0.8,2.6,2,3
			c1.1,0.3,2.2,0.3,3.3-0.1c1-0.4,1.9-1.1,2.5-2.1c0.9-1.6,1.3-3.4,1.3-5.2C-107.7,395.1-109,393.9-112.3,393.9z"/>
		<path class="st1" d="M-84.8,406.4c-0.6-0.2-1.8-0.6-2.9-1.1c-0.4-0.2-0.7-0.6-0.9-0.9c-0.1-0.2,0-0.7,0.2-0.8
			c0.2-0.1,0.7-0.1,0.8,0c1.4,1.7,3.2,1.7,5.1,1.3c0.7-0.2,1.3-0.5,1.8-1c1.1-1.1,0.8-2.4-0.5-3.1c-1-0.5-2-0.9-3-1.3
			c-1.3-0.6-2.5-1.3-2.4-3c0-1.5,1.1-2.9,2.7-3.4c1.4-0.5,2.9-0.6,4.4,0c0.6,0.3,1.2,0.7,1.7,1.2c0.2,0.2,0,0.6-0.1,1
			c-0.3,0-0.7,0-0.9-0.1c-1.3-1.4-2.8-1.5-4.4-1c-0.6,0.2-1.1,0.5-1.5,1c-0.8,1-0.6,2.1,0.4,2.8c0.5,0.3,1.1,0.6,1.7,0.8
			c0.7,0.3,1.5,0.6,2.3,0.9c1.8,1,2.3,2.6,1.3,4.4C-80.4,405.9-82.3,406.2-84.8,406.4z"/>
		<path class="st1" d="M-96.4,406.3c-0.4,0-1-0.1-1.6-0.2c-2-0.4-3.1-1.8-2.7-3.8c0.4-2.9,1-5.7,1.6-8.6c0.1-0.5,0.4-1,0.9-0.8
			c0.2,0.1,0.4,0.7,0.3,1.1c-0.4,2.4-0.9,4.9-1.4,7.3c-0.1,0.4-0.1,0.9-0.1,1.3c0,1.2,0.6,2,1.8,2.3c3.1,0.6,5.6-0.2,6.2-3.7
			c0.4-2,0.8-3.9,1.2-5.9c0.1-0.3,0.1-0.6,0.3-0.8c0.2-0.2,0.5-0.3,0.7-0.3c0.2,0.1,0.4,0.5,0.4,0.7c-0.5,2.5-0.9,5.1-1.6,7.6
			C-91.2,405-93.2,406.2-96.4,406.3z"/>
		<path class="st1" d="M-100.8,387.9c-0.4,2.2-0.8,4.3-1.2,6.4c-0.7,3.6-1.4,7.2-2.1,10.8c0,0.2,0,0.5-0.2,0.6
			c-0.3,0.2-0.6,0.3-0.8,0.4c-0.1-0.3-0.4-0.6-0.3-0.8c0.3-1.8,0.7-3.6,1-5.4c0.7-3.8,1.5-7.6,2.2-11.4c0.1-0.3,0.1-0.7,0.3-0.9
			c0.1-0.1,0.2-0.2,0.4-0.2c0.1,0,0.3,0,0.4,0C-101,387.4-100.9,387.8-100.8,387.9z"/>
		<path class="st1" d="M-89.3,390.6c-0.5,0-0.9,0.1-1.2,0c-0.3-0.1-0.5-0.3-0.7-0.5c0.2-0.2,0.4-0.6,0.6-0.7c0.4-0.1,0.9,0,1.5,0
			c0.1-0.5,0.1-1,0.4-1.4c0.2-0.3,0.6-0.5,0.9-0.7c0.1,0.3,0.3,0.7,0.4,1c0,0.3-0.1,0.6-0.2,1c0.4,0,0.8-0.1,1.1,0
			c0.3,0.1,0.5,0.3,0.8,0.5c-0.2,0.2-0.4,0.6-0.7,0.7c-0.4,0.1-0.9,0-1.4,0c-0.1,0.5-0.2,1-0.4,1.4c-0.1,0.3-0.5,0.4-0.8,0.6
			c-0.1-0.3-0.4-0.6-0.4-0.9C-89.5,391.4-89.4,391-89.3,390.6z"/>
	</g>
</g>
<path class="st1" d="M-159.8,393.1h3.2c-0.1,0.6-0.1,1.3-0.2,2c0.1-0.1,0.1-0.2,0.2-0.2c0.7-0.9,1.6-1.6,2.8-1.9
	c1.7-0.4,3.6,0.2,4.3,2.4c0.3,1,0.3,2,0.3,3c-0.2,1.8-0.7,3.5-1.8,5c-1,1.5-2.4,2.5-4.2,2.8c-1.1,0.2-2.1,0.1-3.1-0.3
	c0,0-0.1,0-0.1,0c-0.1,0.4-0.2,0.8-0.2,1.2c-0.2,1.3-0.5,2.6-0.7,4c0,0.1-0.1,0.2-0.2,0.2c-1.1,0-2.2,0-3.3,0c0,0-0.1,0-0.1,0
	C-162,405.2-160.6,399.2-159.8,393.1z M-153,398.1c0-0.4,0-0.9-0.2-1.3c-0.2-0.6-0.7-0.8-1.3-0.8c-0.6,0-1.1,0.3-1.5,0.7
	c-0.6,0.6-1,1.3-1.1,2.2c-0.3,1.4-0.5,2.8-0.8,4.2c0,0.1,0.1,0.2,0.1,0.2c0.7,0.5,1.7,0.5,2.4,0.1c0.5-0.3,0.9-0.8,1.2-1.3
	C-153.4,400.9-153.1,399.6-153,398.1z"/>
<path class="st1" d="M-184.5,387.5h3.6c-0.5,2.4-0.9,4.9-1.4,7.3l0,0l0.2-0.3c1-1.1,2.2-1.7,3.7-1.7c1.5,0,2.6,1,2.8,2.5
	c0.1,1,0,2-0.2,3c-0.5,2.5-0.9,5-1.4,7.5c0,0.1-0.1,0.2-0.2,0.2c-1.1,0-2.2,0-3.3,0c0,0-0.1,0-0.1,0c0.1-0.7,0.3-1.5,0.4-2.2
	c0.3-1.8,0.7-3.6,1-5.4c0.1-0.5,0.1-1,0.1-1.5c0-0.9-0.7-1.3-1.5-1.1c-0.5,0.2-0.9,0.5-1.3,1c-0.7,0.9-1,1.9-1.2,3
	c-0.4,2-0.8,4-1.1,6c0,0.1-0.1,0.2-0.2,0.2c-1.1,0-2.2,0-3.3,0c0,0-0.1,0-0.1,0C-186.9,399.9-185.7,393.7-184.5,387.5z"/>
<path class="st1" d="M-133.9,412l-1-3.1c0.1,0,0.2-0.1,0.3-0.1c1.5-0.6,2.7-1.5,3.5-2.8c0.2-0.3,0.3-0.7,0.2-1
	c-0.6-3.2-1.2-6.4-1.8-9.6c-0.1-0.7-0.2-1.4-0.4-2.1h3.8c0.3,2.9,0.6,5.9,0.9,8.8l3.3-8.9h3.8c-0.2,0.4-0.3,0.8-0.5,1.1
	c-1.5,3.1-2.9,6.3-4.4,9.4c-0.9,1.8-1.9,3.6-3.2,5.2c-1.1,1.4-2.5,2.4-4.2,3C-133.6,411.9-133.7,411.9-133.9,412z"/>
<path class="st1" d="M-174.4,401.2c0.1-2.5,0.8-4.7,2.6-6.4c1.6-1.6,3.5-2.2,5.7-1.8c2,0.3,3.3,1.6,3.7,3.6c0.4,1.9,0.1,3.7-0.7,5.5
	c-0.7,1.5-1.7,2.8-3.2,3.6c-1.5,0.8-3.2,1-4.8,0.5c-1.9-0.6-2.9-1.9-3.2-3.8C-174.4,401.9-174.4,401.5-174.4,401.2z M-165.9,397.9
	c0-0.2,0-0.5-0.1-0.8c-0.3-1.4-1.6-1.9-2.8-1c-0.4,0.3-0.7,0.7-0.9,1.1c-0.7,1.3-1,2.6-1,4.1c0,0.5,0.1,0.9,0.3,1.3
	c0.4,0.9,1.5,1.3,2.3,0.7c0.5-0.3,0.8-0.7,1-1.1C-166.3,400.9-166,399.5-165.9,397.9z"/>
<path class="st1" d="M-132.1,387.5c-0.2,1-0.5,1.9-0.7,2.8c-0.2,0-0.3-0.1-0.5-0.1c-1.2-0.2-2,0.2-2.5,1.3c-0.2,0.5-0.3,1.1-0.5,1.6
	h2.6c-0.2,0.9-0.3,1.8-0.5,2.7h-2.5c-0.6,3.4-1.3,6.8-1.9,10.2h-3.7c0.6-3.4,1.3-6.8,1.9-10.2h-1.7c0.2-0.9,0.3-1.8,0.5-2.7h1.7
	c0.1-0.5,0.2-1,0.3-1.4c0.3-1.1,0.8-2.2,1.6-3c0.9-0.9,2.1-1.4,3.3-1.5c0.7-0.1,1.4,0,2.1,0.2C-132.3,387.4-132.2,387.5-132.1,387.5
	z"/>
<path class="st1" d="M-198,405.5l0.9-2.5c0.4,0.2,0.8,0.3,1.2,0.4c0.6,0.2,1.3,0.3,1.9,0.3c0.2,0,0.4,0,0.6-0.1
	c1-0.3,1.3-1.3,0.6-2.1c-0.3-0.3-0.7-0.5-1.1-0.8c-0.5-0.4-1-0.7-1.5-1.1c-1.5-1.5-1.1-3.5-0.2-4.7c0.5-0.7,1.2-1.2,2.1-1.5
	c1.6-0.6,3.3-0.6,5-0.1c0.2,0,0.3,0.1,0.4,0.2c0,0,0.1,0.1,0.2,0.1l-0.8,2.5c-0.5-0.1-0.9-0.3-1.4-0.4c-0.6-0.1-1.1-0.2-1.7,0
	c-1,0.3-1.2,1.3-0.4,2c0.2,0.2,0.5,0.4,0.8,0.5c0.5,0.3,1,0.6,1.4,1c1.4,1.2,1.6,2.6,1,4.4c-0.5,1.2-1.4,1.9-2.6,2.3
	c-1.9,0.7-3.8,0.6-5.7-0.2c-0.1-0.1-0.3-0.1-0.4-0.2C-197.9,405.5-198,405.5-198,405.5z"/>
<path class="st1" d="M-145.4,406.1h-3.6c0.8-4.3,1.6-8.6,2.4-12.9h3.7C-143.8,397.5-144.6,401.8-145.4,406.1z"/>
<path class="st1" d="M-142.1,389.4c0,1.4-1.3,2.4-2.7,2.1c-0.7-0.2-1.1-0.7-1.2-1.6c-0.2-1.4,1.1-2.6,2.5-2.3
	C-142.7,387.9-142.1,388.6-142.1,389.4z"/>
</svg>
