<?xml version="1.0" encoding="utf-8"?>
<svg width="151" height="28" viewBox="0 0 151 28" fill="none" xmlns="http://www.w3.org/2000/svg">
<path d="M33.2653 11.2097C28.4504 9.98478 27.5305 9.74978 27.5305 8.35481C27.5305 6.95984 29.0904 6.12486 30.4404 6.12486C32.4604 6.12486 34.1003 6.70985 34.2253 9.0348H38.3202C38.3202 4.5949 34.6303 2.78494 30.6204 2.78494C27.1555 2.78494 23.4356 4.66489 23.4356 8.60481C23.4356 12.2097 26.3155 13.3097 29.1704 14.0647C32.0254 14.8197 34.8803 15.1647 34.8803 17.2396C34.8803 19.3146 32.6253 19.6346 31.1354 19.6346C28.8804 19.6346 26.8755 18.6346 26.8755 16.0846H22.7956C22.7956 20.8195 26.7205 22.9195 30.9804 22.9195C36.2003 22.9195 38.9702 20.2895 38.9702 16.7496C38.9752 12.4497 34.6603 11.5597 33.2653 11.2097V11.2097ZM53.1749 8.60481H48.705L43.8901 13.6047V3.30493H40.0752V22.5195H43.9051V17.7296L45.3801 16.3396L49.195 22.5495H53.8149L47.985 13.7147L53.1749 8.60481ZM63.0047 15.9046C63.0047 18.6896 62.1147 19.8846 60.0547 19.8846C58.2748 19.8846 57.6048 18.7546 57.6048 16.4746V8.60481H53.8299V17.1696C53.8299 20.6095 54.8598 22.9045 58.9098 22.9045C60.6297 22.9195 62.2347 22.0445 63.1547 20.5945H63.2397V22.5295H66.8746V8.60481H63.0597L63.0047 15.9046ZM15.4457 7.44983C14.6957 5.37488 19.7606 0 10.4758 0C2.56602 0.00499989 1.83103 7.85482 1.48104 8.46981C0.967279 9.15562 0.58423 9.93019 0.351067 10.7548C0.141072 11.7697 0.351067 12.8847 1.00605 12.8847C1.98103 12.8847 0.781057 10.9198 1.98103 10.9198C3.501 10.9198 5.28096 13.3847 5.76595 14.7747C4.95596 16.1646 3.81599 17.1846 2.98101 16.7946C2.50918 16.6333 2.09717 16.333 1.79913 15.9333C1.50108 15.5335 1.33094 15.0529 1.31105 14.5547C1.31105 13.6497 0.476064 13.6797 0.561062 14.8347C0.66106 16.1696 1.38604 17.3796 2.51102 18.1046C3.77671 19.1095 4.79597 20.3904 5.49095 21.8495C5.86594 22.7695 6.35593 23.2395 7.7059 23.2395C9.05587 23.2395 8.0259 24.4095 8.94587 24.4095C9.86585 24.4095 9.32087 23.1145 9.86585 23.1145C10.4108 23.1145 9.86585 24.3545 10.8958 24.3545C12.4708 24.3545 11.7608 22.3895 12.2858 22.0595C12.8158 21.7245 19.5406 18.1346 19.4256 13.7047C19.3106 9.27479 16.2107 9.52479 15.4457 7.44983V7.44983ZM8.84588 19.9796C8.47217 19.7648 8.05832 19.6291 7.62999 19.5809C7.20166 19.5328 6.768 19.5731 6.35593 19.6996C5.75595 19.9246 5.17096 19.5896 5.66095 18.0696C5.88094 17.2996 6.21094 16.5646 6.63593 15.8846C7.8109 17.0996 8.89088 18.3996 9.88085 19.7696C9.93585 20.2145 9.22587 20.3845 8.85088 19.9346V19.9796H8.84588ZM13.4408 17.4596C11.4258 17.5196 9.74586 15.9396 9.68586 13.9247C9.62586 11.9097 11.2058 10.2298 13.2208 10.1698C15.2357 10.1098 16.9157 11.6897 16.9757 13.7047V13.7847C17.0057 15.7596 15.4307 17.3896 13.4558 17.4196H13.4408V17.4596ZM115.828 8.22982C114.982 8.21979 114.148 8.42687 113.405 8.83128C112.662 9.23569 112.035 9.82392 111.584 10.5398H111.499V8.60481H107.849V22.5295H111.649V15.2197C111.649 12.4347 112.539 11.2397 114.599 11.2397C116.378 11.2397 117.048 12.3697 117.048 14.6497V22.5045H120.878V13.9247C120.908 10.5148 119.878 8.22982 115.828 8.22982ZM146.293 8.60481L143.243 18.0996L140.098 8.57481H136.033V3.30493H132.218V10.2648C131.757 9.59162 131.131 9.04761 130.4 8.68443C129.67 8.32126 128.858 8.15099 128.043 8.18982C123.948 8.18982 121.888 11.6547 121.888 15.3997C121.888 19.1446 123.933 22.8495 128.123 22.8495C129.803 22.9445 131.403 22.1195 132.298 20.6895V22.4695H135.933V8.8148L140.888 21.6495C141.107 22.0719 141.15 22.5641 141.006 23.0179C140.863 23.4717 140.545 23.8499 140.123 24.0695C139.948 24.1595 139.758 24.2195 139.568 24.2495C138.823 24.2445 138.078 24.1995 137.338 24.1095V27.2544C138.113 27.3344 138.898 27.3794 139.678 27.3794C141.833 27.6694 143.878 26.3294 144.468 24.2345L150.273 8.56981L146.293 8.60481ZM129.053 20.0096C126.688 20.0096 125.698 17.7246 125.698 15.5397C125.698 13.3547 126.563 11.1397 129.053 11.1397C131.543 11.1397 132.338 13.2997 132.338 15.5547C132.338 17.8096 131.588 20.0096 129.053 20.0096ZM68.4895 22.5145H72.3195V3.30493H68.4895V22.5145ZM106.234 12.1847C106.234 8.8448 102.894 8.22982 100.124 8.22982C97.0039 8.22982 93.804 9.29979 93.579 12.8797H97.4089C97.5339 11.3747 98.4789 10.7798 99.9438 10.7798C101.404 10.7798 102.424 11.0148 102.424 12.6597C102.424 14.3047 100.254 14.1347 97.9139 14.4847C95.5739 14.8347 93.179 15.5547 93.179 18.6596C93.179 21.4445 95.2789 22.8345 97.9139 22.8345C99.6438 22.9195 101.334 22.2945 102.594 21.1095C102.624 21.5845 102.714 22.0495 102.859 22.4995H106.729C106.339 21.5195 106.174 20.4645 106.244 19.4096L106.234 12.1847ZM102.409 17.1296C102.477 17.5559 102.445 17.9922 102.315 18.404C102.186 18.8158 101.963 19.1919 101.663 19.5027C101.364 19.8135 100.996 20.0504 100.589 20.1947C100.182 20.3391 99.7473 20.387 99.3189 20.3345C98.0789 20.3345 96.9789 19.9846 96.9789 18.5546C96.9789 17.1246 98.0489 16.7596 99.2339 16.5096C100.339 16.4746 101.424 16.1996 102.409 15.6996V17.1296ZM74.1594 22.5145H77.9893V3.30493H74.1594V22.5145ZM86.2142 20.0096C83.8192 20.0096 83.0392 17.6146 83.0392 15.6246C83.0392 13.6347 83.8042 11.1397 86.2841 11.1397C86.9708 11.089 87.6496 11.3126 88.1716 11.7616C88.6937 12.2105 89.0164 12.8482 89.0691 13.5347H92.854C92.619 9.98478 89.5941 8.25981 86.3241 8.25981C81.7993 8.25981 79.2243 11.4597 79.2243 15.7896C79.0143 19.5146 81.8642 22.6995 85.5842 22.9095C85.7842 22.9195 85.9842 22.9245 86.1842 22.9145C89.6091 23.1845 92.609 20.6295 92.879 17.2046H89.2441C89.2122 17.9777 88.8756 18.7066 88.3078 19.2322C87.7401 19.7578 86.9873 20.0373 86.2142 20.0096V20.0096Z" fill="white"/>
</svg>
